<svg preserveAspectRatio="none" width="100%" height="100%" overflow="visible" style="display: block;" viewBox="0 0 36 36" fill="none" xmlns="http://www.w3.org/2000/svg">
<g id="Package">
<path id="Vector" d="M31.32 9.54984L18.945 2.77453C18.6557 2.61474 18.3305 2.53092 18 2.53092C17.6695 2.53092 17.3443 2.61474 17.055 2.77453L4.68 9.54984C4.37035 9.71927 4.11195 9.96883 3.93184 10.2724C3.75173 10.5759 3.65655 10.9223 3.65625 11.2753V24.7247C3.65655 25.0777 3.75173 25.4241 3.93184 25.7276C4.11195 26.0312 4.37035 26.2807 4.68 26.4502L17.055 33.2255C17.3444 33.385 17.6695 33.4687 18 33.4687C18.3305 33.4687 18.6556 33.385 18.945 33.2255L31.32 26.4502C31.6296 26.2807 31.8881 26.0312 32.0682 25.7276C32.2483 25.4241 32.3435 25.0777 32.3438 24.7247V11.2753C32.3435 10.9223 32.2483 10.5759 32.0682 10.2724C31.8881 9.96883 31.6296 9.71927 31.32 9.54984ZM17.8594 4.25391C17.9008 4.23126 17.9472 4.21939 17.9944 4.21939C18.0416 4.21939 18.088 4.23126 18.1294 4.25391L29.8842 10.6875L25.1114 13.2989L13.2258 6.79359L17.8594 4.25391ZM17.1562 31.3594L5.48438 24.9708C5.44125 24.9459 5.4055 24.91 5.3808 24.8667C5.35609 24.8235 5.3433 24.7745 5.34375 24.7247V12.1866L17.1562 18.6553V31.3594ZM6.11578 10.6875L11.4694 7.75547L23.3536 14.2608L18 17.19L6.11578 10.6875ZM30.6562 24.7247C30.6567 24.7745 30.6439 24.8235 30.6192 24.8667C30.5945 24.91 30.5588 24.9459 30.5156 24.9708L18.8438 31.3594V18.6525L23.9062 15.8808V21.375C23.9062 21.5988 23.9951 21.8134 24.1534 21.9716C24.3116 22.1299 24.5262 22.2187 24.75 22.2187C24.9738 22.2187 25.1884 22.1299 25.3466 21.9716C25.5049 21.8134 25.5938 21.5988 25.5938 21.375V14.9583L30.6562 12.1866V24.7247Z" fill="var(--fill-0, white)"/>
</g>
</svg>
