<svg preserveAspectRatio="none" width="100%" height="100%" overflow="visible" style="display: block;" viewBox="0 0 24 24" fill="none" xmlns="http://www.w3.org/2000/svg">
<g id="Genetics--Streamline-Sharp-Material-Symbols 1">
<path id="Vector" d="M5 23V22C5 19.6667 5.54165 17.7834 6.625 16.35C7.70835 14.9167 9.11665 13.4667 10.85 12C9.11665 10.5333 7.70835 9.08335 6.625 7.65C5.54165 6.21665 5 4.33333 5 2V1H6.5V2C6.5 2.18334 6.50415 2.35417 6.5125 2.5125C6.52085 2.67084 6.53335 2.83333 6.55 3H17.45C17.4667 2.83333 17.4791 2.67084 17.4875 2.5125C17.4958 2.35417 17.5 2.18334 17.5 2V1H19V2C19 4.33333 18.4583 6.21665 17.375 7.65C16.2917 9.08335 14.8833 10.5333 13.15 12C14.8833 13.4667 16.2917 14.9167 17.375 16.35C18.4583 17.7834 19 19.6667 19 22V23H17.5V22C17.5 21.8167 17.4958 21.6458 17.4875 21.4875C17.4791 21.3291 17.4667 21.1666 17.45 21H6.55C6.53335 21.1666 6.52085 21.3291 6.5125 21.4875C6.50415 21.6458 6.5 21.8167 6.5 22V23H5ZM8 7H16C16.2666 6.61665 16.4958 6.22085 16.6875 5.8125C16.8792 5.40415 17.0416 4.96666 17.175 4.5H6.825C6.95835 4.96666 7.12085 5.40415 7.3125 5.8125C7.50415 6.22085 7.73335 6.61665 8 7ZM12 11.025C12.5167 10.5916 13.0084 10.1708 13.475 9.7625C13.9417 9.35415 14.375 8.93335 14.775 8.5H9.225C9.625 8.93335 10.0541 9.35415 10.5125 9.7625C10.9708 10.1708 11.4667 10.5916 12 11.025ZM9.225 15.5H14.775C14.375 15.0667 13.9417 14.6459 13.475 14.2375C13.0084 13.8292 12.5167 13.4084 12 12.975C11.4833 13.4084 10.9916 13.8292 10.525 14.2375C10.0583 14.6459 9.625 15.0667 9.225 15.5ZM6.825 19.5H17.175C17.0416 19.0333 16.8792 18.5958 16.6875 18.1875C16.4958 17.7792 16.2666 17.3834 16 17H8C7.73335 17.3834 7.50415 17.7792 7.3125 18.1875C7.12085 18.5958 6.95835 19.0333 6.825 19.5Z" fill="var(--fill-0, black)"/>
</g>
</svg>
