<svg preserveAspectRatio="none" width="100%" height="100%" overflow="visible" style="display: block;" viewBox="0 0 24 24" fill="none" xmlns="http://www.w3.org/2000/svg">
<g id="cotton-candy-stroke-rounded 1">
<path id="Vector" d="M14.6028 5.1929C14.4442 4.74434 14.1854 4.32328 13.8266 3.96443C12.5407 2.67852 10.4558 2.67852 9.16994 3.96443C8.89701 4.23737 8.68203 4.54628 8.52498 4.87591C8.17578 5.60856 7.3002 6.2742 6.49196 6.34763C5.62836 6.42609 4.78627 6.79587 4.12516 7.45696C2.62495 8.95719 2.62495 11.3895 4.12516 12.8898C4.54784 13.3124 5.04449 13.6161 5.57344 13.8006M14.6028 5.1929C15.0124 6.35174 14.7536 7.69406 13.8266 8.62113M14.6028 5.1929C14.7613 4.74434 15.02 4.32328 15.3788 3.96443C16.6648 2.67852 18.7496 2.67852 20.0355 3.96443C21.3215 5.25035 21.3215 7.33522 20.0355 8.62113C19.6902 8.96646 19.6902 9.82804 20.0355 10.1734C21.3215 11.4593 21.3215 13.5442 20.0355 14.8301C19.318 15.5477 18.3515 15.8648 17.4139 15.7815M5.57344 13.8006C5.47513 13.8786 5.38023 13.963 5.28935 14.0539C4.00343 15.3399 4.00343 17.4248 5.28935 18.7106C6.57525 19.9966 8.66009 19.9966 9.94607 18.7106C10.0628 18.5939 10.2729 18.6295 10.3426 18.7794C10.5271 19.1759 10.783 19.5476 11.1102 19.8748C12.6104 21.3751 15.0428 21.3751 16.5431 19.8748C17.6497 18.7681 17.94 17.1543 17.4139 15.7815M5.57344 13.8006C6.866 12.7745 8.75099 12.8589 9.94607 14.0539M17.4139 15.7815C16.6715 15.7155 15.9472 15.3984 15.3788 14.8301C15.1067 14.5579 14.8921 14.25 14.7352 13.9215" stroke="var(--stroke-0, black)" stroke-width="1.5" stroke-linecap="round" stroke-linejoin="round"/>
</g>
</svg>
