<svg preserveAspectRatio="none" width="100%" height="100%" overflow="visible" style="display: block;" viewBox="0 0 24 24" fill="none" xmlns="http://www.w3.org/2000/svg">
<g id="Neurology--Streamline-Sharp-Material-Symbols 1">
<path id="Vector" d="M9.625 21C8.775 21 8.05415 20.6833 7.4625 20.05C6.87085 19.4166 6.53335 18.7 6.45 17.9C5.46665 17.8166 4.64583 17.4042 3.9875 16.6625C3.32916 15.9209 3 15.0166 3 13.95C3 13.5833 3.04584 13.2291 3.1375 12.8875C3.22917 12.5458 3.36666 12.2166 3.55 11.9C3.36666 11.6 3.22917 11.2833 3.1375 10.95C3.04584 10.6166 3 10.2584 3 9.875C3 8.875 3.34583 8.01665 4.0375 7.3C4.72916 6.58335 5.55 6.16665 6.5 6.05C6.53335 5.2 6.85415 4.47917 7.4625 3.8875C8.07085 3.29584 8.8 3 9.65 3C10.1333 3 10.5625 3.0875 10.9375 3.2625C11.3125 3.4375 11.6666 3.69167 12 4.025C12.3334 3.69167 12.6834 3.4375 13.05 3.2625C13.4167 3.0875 13.8416 3 14.325 3C15.1583 3 15.875 3.29584 16.475 3.8875C17.075 4.47917 17.4 5.2 17.45 6.05C18.4167 6.13335 19.25 6.5375 19.95 7.2625C20.65 7.9875 21 8.85835 21 9.875C21 10.2584 20.95 10.6208 20.85 10.9625C20.75 11.3041 20.6083 11.625 20.425 11.925C20.6083 12.2584 20.75 12.6084 20.85 12.975C20.95 13.3417 21 13.7 21 14.05C21 15.1167 20.6709 16.0041 20.0125 16.7125C19.3542 17.4208 18.5333 17.8166 17.55 17.9C17.4666 18.7 17.125 19.4166 16.525 20.05C15.925 20.6833 15.2084 21 14.375 21C13.875 21 13.4416 20.9166 13.075 20.75C12.7083 20.5834 12.35 20.3334 12 20C11.65 20.3334 11.2917 20.5834 10.925 20.75C10.5584 20.9166 10.125 21 9.625 21ZM12.75 6V18C12.75 18.4166 12.9125 18.7709 13.2375 19.0625C13.5625 19.3541 13.95 19.5 14.4 19.5C14.8333 19.5 15.2083 19.3083 15.525 18.925C15.8416 18.5416 16.0166 18.15 16.05 17.75C15.6666 17.6167 15.3084 17.4375 14.975 17.2125C14.6417 16.9875 14.3583 16.7084 14.125 16.375C13.9917 16.1917 13.9417 16.0042 13.975 15.8125C14.0084 15.6208 14.1167 15.4583 14.3 15.325C14.4834 15.1916 14.6709 15.1417 14.8625 15.175C15.0542 15.2084 15.2167 15.3167 15.35 15.5C15.5667 15.8 15.8333 16.0291 16.15 16.1875C16.4666 16.3459 16.8167 16.425 17.2 16.425C17.8334 16.425 18.375 16.2083 18.825 15.775C19.275 15.3416 19.5 14.7667 19.5 14.05C19.5 13.9 19.4834 13.7458 19.45 13.5875C19.4167 13.4291 19.3834 13.2667 19.35 13.1C19.05 13.3167 18.7208 13.4791 18.3625 13.5875C18.0041 13.6958 17.6334 13.75 17.25 13.75C17.0334 13.75 16.8541 13.6792 16.7125 13.5375C16.5708 13.3959 16.5 13.2166 16.5 13C16.5 12.7834 16.5708 12.6041 16.7125 12.4625C16.8541 12.3208 17.0334 12.25 17.25 12.25C17.8834 12.25 18.4167 12.0167 18.85 11.55C19.2834 11.0834 19.5 10.525 19.5 9.875C19.5 9.24165 19.2666 8.7 18.8 8.25C18.3333 7.8 17.8 7.55835 17.2 7.525C17.0334 7.925 16.7958 8.27915 16.4875 8.5875C16.1791 8.89585 15.825 9.125 15.425 9.275C15.225 9.35835 15.0334 9.35415 14.85 9.2625C14.6667 9.17085 14.5417 9.025 14.475 8.825C14.4084 8.625 14.4166 8.42915 14.5 8.2375C14.5834 8.04585 14.725 7.91665 14.925 7.85C15.225 7.75 15.4709 7.55 15.6625 7.25C15.8542 6.95 15.95 6.60835 15.95 6.225C15.95 5.74165 15.7917 5.33335 15.475 5C15.1584 4.66666 14.7834 4.5 14.35 4.5C13.9167 4.5 13.5417 4.64584 13.225 4.9375C12.9084 5.22915 12.75 5.58335 12.75 6ZM11.25 18V6C11.25 5.58335 11.0959 5.22915 10.7875 4.9375C10.4792 4.64584 10.1 4.5 9.65 4.5C9.21665 4.5 8.8375 4.66666 8.5125 5C8.1875 5.33335 8.025 5.74165 8.025 6.225C8.025 6.60835 8.11665 6.94585 8.3 7.2375C8.48335 7.52915 8.725 7.725 9.025 7.825C9.225 7.89165 9.37085 8.02085 9.4625 8.2125C9.55415 8.40415 9.56665 8.59165 9.5 8.775C9.41665 8.975 9.27915 9.125 9.0875 9.225C8.89585 9.325 8.7 9.33335 8.5 9.25C8.1 9.11665 7.75 8.89585 7.45 8.5875C7.15 8.27915 6.91665 7.925 6.75 7.525C6.16665 7.575 5.64585 7.82085 5.1875 8.2625C4.72916 8.70415 4.5 9.24165 4.5 9.875C4.5 10.525 4.71667 11.0834 5.15 11.55C5.58335 12.0167 6.11665 12.25 6.75 12.25C6.96665 12.25 7.14585 12.3208 7.2875 12.4625C7.42915 12.6041 7.5 12.7834 7.5 13C7.5 13.2166 7.42915 13.3959 7.2875 13.5375C7.14585 13.6792 6.96665 13.75 6.75 13.75C6.36665 13.75 5.99585 13.6916 5.6375 13.575C5.27915 13.4583 4.95 13.3 4.65 13.1C4.6 13.2334 4.5625 13.375 4.5375 13.525C4.5125 13.675 4.5 13.825 4.5 13.975C4.5 14.6917 4.72083 15.2792 5.1625 15.7375C5.60415 16.1959 6.14165 16.425 6.775 16.425C7.14165 16.425 7.4875 16.3416 7.8125 16.175C8.1375 16.0083 8.40835 15.7833 8.625 15.5C8.75835 15.3334 8.925 15.2292 9.125 15.1875C9.325 15.1458 9.50835 15.1916 9.675 15.325C9.84165 15.4583 9.94585 15.625 9.9875 15.825C10.0292 16.025 9.98335 16.2084 9.85 16.375C9.61665 16.7084 9.3375 16.9875 9.0125 17.2125C8.6875 17.4375 8.33335 17.6167 7.95 17.75C7.98335 18.15 8.15835 18.5416 8.475 18.925C8.79165 19.3083 9.175 19.5 9.625 19.5C10.075 19.5 10.4583 19.3541 10.775 19.0625C11.0916 18.7709 11.25 18.4166 11.25 18Z" fill="var(--fill-0, white)"/>
</g>
</svg>
