<svg preserveAspectRatio="none" width="100%" height="100%" overflow="visible" style="display: block;" viewBox="0 0 36 36" fill="none" xmlns="http://www.w3.org/2000/svg">
<g id="Tree">
<path id="Vector" d="M27.6398 9.01266C26.8603 7.09538 25.5267 5.45413 23.8095 4.29866C22.0924 3.1432 20.0697 2.52603 18 2.52603C15.9303 2.52603 13.9076 3.1432 12.1905 4.29866C10.4733 5.45413 9.13973 7.09538 8.36016 9.01266C6.6258 9.78179 5.1519 11.0377 4.11725 12.628C3.0826 14.2183 2.53165 16.0746 2.53125 17.9719C2.51719 23.1905 6.90891 27.7031 12.1205 27.8438C13.8798 27.8848 15.6182 27.4557 17.1562 26.6006V32.625C17.1562 32.8488 17.2451 33.0634 17.4034 33.2216C17.5616 33.3799 17.7762 33.4688 18 33.4688C18.2238 33.4688 18.4384 33.3799 18.5966 33.2216C18.7549 33.0634 18.8437 32.8488 18.8437 32.625V26.6006C20.3061 27.4141 21.9516 27.8419 23.625 27.8438H23.8739C29.0911 27.7031 33.4828 23.1891 33.4687 17.9719C33.4683 16.0746 32.9174 14.2183 31.8827 12.628C30.8481 11.0377 29.3742 9.78179 27.6398 9.01266ZM23.8359 26.1563C22.0471 26.2034 20.2925 25.6598 18.8437 24.6094V18.5217L25.1269 15.3802C25.3272 15.2802 25.4795 15.1048 25.5505 14.8925C25.6214 14.6802 25.6051 14.4484 25.5052 14.2481C25.4052 14.0478 25.2298 13.8955 25.0175 13.8245C24.8052 13.7536 24.5734 13.7699 24.3731 13.8698L18.8437 16.6345V12.375C18.8437 12.1512 18.7549 11.9366 18.5966 11.7784C18.4384 11.6201 18.2238 11.5313 18 11.5313C17.7762 11.5313 17.5616 11.6201 17.4034 11.7784C17.2451 11.9366 17.1562 12.1512 17.1562 12.375V20.0095L11.6269 17.2448C11.4266 17.1449 11.1948 17.1286 10.9825 17.1995C10.7702 17.2705 10.5948 17.4228 10.4948 17.6231C10.3949 17.8234 10.3786 18.0552 10.4495 18.2675C10.5205 18.4798 10.6728 18.6552 10.8731 18.7552L17.1562 21.8967V24.6094C15.7065 25.6578 13.9526 26.2012 12.1641 26.1563C7.84547 26.048 4.2075 22.3031 4.21875 17.9803C4.21866 16.3551 4.70597 14.7671 5.61772 13.4217C6.52946 12.0763 7.82372 11.0352 9.33328 10.433C9.44289 10.3887 9.54196 10.3219 9.62409 10.2368C9.70621 10.1518 9.76955 10.0505 9.81 9.93938C10.4231 8.26 11.5377 6.80971 13.0027 5.785C14.4676 4.76028 16.2122 4.21069 18 4.21069C19.7878 4.21069 21.5324 4.76028 22.9973 5.785C24.4623 6.80971 25.5769 8.26 26.19 9.93938C26.2304 10.0505 26.2938 10.1518 26.3759 10.2368C26.458 10.3219 26.5571 10.3887 26.6667 10.433C28.1757 11.0348 29.4696 12.0752 30.3813 13.4198C31.2931 14.7644 31.7807 16.3515 31.7812 17.9761C31.7925 22.3003 28.1545 26.0438 23.8359 26.1563Z" fill="var(--fill-0, white)"/>
</g>
</svg>
