<svg xmlns="http://www.w3.org/2000/svg" viewBox="0 0 36 36" fill="none">
  <rect x="2.5" y="6.5" width="31" height="23" rx="1.5" stroke="#ffffff" stroke-width="1.2"/>
  <g fill="#ffffff">
    <rect x="3.2" y="8.2" width="29.6" height="1.35"/>
    <rect x="3.2" y="10.9" width="29.6" height="1.35"/>
    <rect x="3.2" y="13.6" width="29.6" height="1.35"/>
    <rect x="3.2" y="16.3" width="29.6" height="1.35"/>
    <rect x="3.2" y="19.0" width="29.6" height="1.35"/>
    <rect x="3.2" y="21.7" width="29.6" height="1.35"/>
    <rect x="3.2" y="24.4" width="29.6" height="1.35"/>
    <rect x="3.2" y="27.1" width="29.6" height="1.35"/>
  </g>
  <rect x="3.2" y="8.2" width="12.4" height="10.8" fill="#31331e"/>
  <g fill="#ffffff">
    <circle cx="5.0" cy="10.0" r=".45"/>
    <circle cx="7.0" cy="10.0" r=".45"/>
    <circle cx="9.0" cy="10.0" r=".45"/>
    <circle cx="11.0" cy="10.0" r=".45"/>
    <circle cx="13.0" cy="10.0" r=".45"/>
    <circle cx="6.0" cy="11.8" r=".45"/>
    <circle cx="8.0" cy="11.8" r=".45"/>
    <circle cx="10.0" cy="11.8" r=".45"/>
    <circle cx="12.0" cy="11.8" r=".45"/>
    <circle cx="5.0" cy="13.6" r=".45"/>
    <circle cx="7.0" cy="13.6" r=".45"/>
    <circle cx="9.0" cy="13.6" r=".45"/>
    <circle cx="11.0" cy="13.6" r=".45"/>
    <circle cx="13.0" cy="13.6" r=".45"/>
    <circle cx="6.0" cy="15.4" r=".45"/>
    <circle cx="8.0" cy="15.4" r=".45"/>
    <circle cx="10.0" cy="15.4" r=".45"/>
    <circle cx="12.0" cy="15.4" r=".45"/>
    <circle cx="5.0" cy="17.2" r=".45"/>
    <circle cx="7.0" cy="17.2" r=".45"/>
    <circle cx="9.0" cy="17.2" r=".45"/>
    <circle cx="11.0" cy="17.2" r=".45"/>
    <circle cx="13.0" cy="17.2" r=".45"/>
  </g>
</svg>
