<svg preserveAspectRatio="none" width="100%" height="100%" overflow="visible" style="display: block;" viewBox="0 0 24 24" fill="none" xmlns="http://www.w3.org/2000/svg">
<g id="Rheumatology--Streamline-Sharp-Material-Symbols 1">
<path id="Vector" d="M22.725 17.025L17.85 15.4L18.3 13.975L23.175 15.6L22.725 17.025ZM23 12.75H18.325V11.25H23V12.75ZM23.175 8.4L18.325 10L17.875 8.575L22.725 6.975L23.175 8.4ZM7.125 14C6.25835 14 5.52085 13.6958 4.9125 13.0875C4.30416 12.4791 4 11.7416 4 10.875C4 10.4417 4.08333 10.0375 4.25 9.6625C4.41667 9.2875 4.64167 8.95835 4.925 8.675L7 6.575V2H8.5V6.575C8.5 6.77785 8.4625 6.9744 8.3875 7.16475C8.3125 7.3549 8.20835 7.51665 8.075 7.65L5.975 9.725C5.82885 9.874 5.71315 10.0479 5.628 10.2465C5.54265 10.4452 5.5 10.6562 5.5 10.8795C5.5 11.3265 5.66185 11.7083 5.9855 12.025C6.30915 12.3416 6.68685 12.5 7.1185 12.5C7.40615 12.5 7.6375 12.45 7.8125 12.35C7.9875 12.25 8.18335 12.1084 8.4 11.925C8.63335 11.7417 8.90415 11.5666 9.2125 11.4C9.52085 11.2333 9.86665 11.15 10.25 11.15C10.5333 11.15 10.8291 11.2083 11.1375 11.325C11.4458 11.4416 11.775 11.6417 12.125 11.925C12.3416 12.1084 12.533 12.25 12.699 12.35C12.8649 12.45 13.09 12.5 13.3745 12.5C13.8249 12.5 14.2083 12.3416 14.525 12.025C14.8416 11.7083 15 11.3222 15 10.8667C15 10.6389 14.9596 10.4234 14.8787 10.22C14.7981 10.0169 14.6885 9.8435 14.55 9.7L12.45 7.625C12.3166 7.49165 12.2084 7.32915 12.125 7.1375C12.0416 6.94585 12 6.75 12 6.55V2H13.5V6.55L15.6 8.65C15.8834 8.93335 16.1042 9.26665 16.2625 9.65C16.4209 10.0333 16.5 10.4417 16.5 10.875C16.5 11.7416 16.2 12.4791 15.6 13.0875C15 13.6958 14.2584 14 13.375 14C12.825 14 12.3792 13.8959 12.0375 13.6875C11.6959 13.4791 11.4084 13.275 11.175 13.075C10.925 12.875 10.7291 12.7541 10.5875 12.7125C10.4458 12.6708 10.3334 12.65 10.25 12.65C10.1 12.65 9.94585 12.7 9.7875 12.8C9.62915 12.9 9.48335 12.9916 9.35 13.075C9.1 13.275 8.8064 13.4791 8.46925 13.6875C8.13225 13.8959 7.68415 14 7.125 14ZM12 22V17.65C12 17.4471 12.0416 17.2506 12.125 17.0602C12.2084 16.8701 12.3166 16.7084 12.45 16.575L14.55 14.5C14.6885 14.3562 14.7981 14.1883 14.8787 13.9963C14.9596 13.8044 15 13.6006 15 13.3848C15 13.1449 14.9596 12.925 14.8787 12.725C14.7981 12.525 14.6885 12.35 14.55 12.2L15.6 11.15C15.8834 11.4333 16.1042 11.7666 16.2625 12.15C16.4209 12.5333 16.5 12.9417 16.5 13.375C16.5 13.8083 16.4209 14.2083 16.2625 14.575C16.1042 14.9416 15.8834 15.2667 15.6 15.55L13.5 17.65V22H12ZM7 22V17.65L4.925 15.55C4.64167 15.2667 4.41667 14.9416 4.25 14.575C4.08333 14.2083 4 13.8083 4 13.375C4 12.9417 4.08333 12.5333 4.25 12.15C4.41667 11.7666 4.64167 11.4333 4.925 11.15L5.975 12.2C5.825 12.3666 5.70835 12.5453 5.625 12.7358C5.54165 12.9263 5.5 13.1405 5.5 13.3785C5.5 13.5928 5.54585 13.7959 5.6375 13.9875C5.72915 14.1792 5.84165 14.35 5.975 14.5L8.075 16.575C8.20835 16.7084 8.3125 16.8701 8.3875 17.0602C8.4625 17.2506 8.5 17.4471 8.5 17.65V22H7Z" fill="var(--fill-0, black)"/>
</g>
</svg>
