<svg preserveAspectRatio="none" width="100%" height="100%" overflow="visible" style="display: block;" viewBox="0 0 24 24" fill="none" xmlns="http://www.w3.org/2000/svg">
<g id="Blur-Off--Streamline-Sharp-Material-Symbols 1">
<path id="Vector" d="M20.6 22.475L1.84997 3.725L2.92497 2.65L21.675 21.4L20.6 22.475ZM10.05 21.5C9.9 21.5 9.775 21.45 9.675 21.35C9.575 21.25 9.525 21.125 9.525 20.975C9.525 20.825 9.575 20.7 9.675 20.6C9.775 20.5 9.9 20.45 10.05 20.45C10.2 20.45 10.325 20.5 10.425 20.6C10.525 20.7 10.575 20.825 10.575 20.975C10.575 21.125 10.525 21.25 10.425 21.35C10.325 21.45 10.2 21.5 10.05 21.5ZM14.1 21.5C13.95 21.5 13.825 21.45 13.725 21.35C13.625 21.25 13.575 21.125 13.575 20.975C13.575 20.825 13.625 20.7 13.725 20.6C13.825 20.5 13.95 20.45 14.1 20.45C14.25 20.45 14.375 20.5 14.475 20.6C14.575 20.7 14.625 20.825 14.625 20.975C14.625 21.125 14.575 21.25 14.475 21.35C14.375 21.45 14.25 21.5 14.1 21.5ZM6.00275 18.95C5.73425 18.95 5.5083 18.8592 5.325 18.6777C5.14165 18.4961 5.05 18.2711 5.05 18.0028C5.05 17.7343 5.14075 17.5084 5.32225 17.325C5.5039 17.1417 5.7289 17.05 5.99725 17.05C6.26575 17.05 6.49165 17.1408 6.675 17.3223C6.8583 17.5039 6.95 17.7289 6.95 17.9972C6.95 18.2657 6.85925 18.4916 6.67775 18.675C6.49605 18.8583 6.27105 18.95 6.00275 18.95ZM10.0527 18.95C9.78425 18.95 9.5583 18.8592 9.375 18.6777C9.19165 18.4961 9.1 18.2711 9.1 18.0028C9.1 17.7343 9.19075 17.5084 9.37225 17.325C9.5539 17.1417 9.7789 17.05 10.0473 17.05C10.3158 17.05 10.5417 17.1408 10.725 17.3223C10.9083 17.5039 11 17.7289 11 17.9972C11 18.2657 10.9093 18.4916 10.7278 18.675C10.5461 18.8583 10.321 18.95 10.0527 18.95ZM13.9528 18.95C13.6843 18.95 13.4583 18.8592 13.275 18.6777C13.0916 18.4961 13 18.2711 13 18.0028C13 17.7343 13.0908 17.5084 13.2723 17.325C13.4539 17.1417 13.6789 17.05 13.9473 17.05C14.2158 17.05 14.4417 17.1408 14.625 17.3223C14.8083 17.5039 14.9 17.7289 14.9 17.9972C14.9 18.2657 14.8093 18.4916 14.6278 18.675C14.4461 18.8583 14.2211 18.95 13.9528 18.95ZM10.05 15.3C9.66 15.3 9.3375 15.1725 9.0825 14.9175C8.8275 14.6625 8.7 14.34 8.7 13.95C8.7 13.56 8.8275 13.2375 9.0825 12.9825C9.3375 12.7275 9.66 12.6 10.05 12.6C10.44 12.6 10.7625 12.7275 11.0175 12.9825C11.2725 13.2375 11.4 13.56 11.4 13.95C11.4 14.34 11.2725 14.6625 11.0175 14.9175C10.7625 15.1725 10.44 15.3 10.05 15.3ZM6.00275 14.9C5.73425 14.9 5.5083 14.8093 5.325 14.6278C5.14165 14.4461 5.05 14.2211 5.05 13.9528C5.05 13.6843 5.14075 13.4583 5.32225 13.275C5.5039 13.0916 5.7289 13 5.99725 13C6.26575 13 6.49165 13.0908 6.675 13.2723C6.8583 13.4539 6.95 13.6789 6.95 13.9473C6.95 14.2158 6.85925 14.4417 6.67775 14.625C6.49605 14.8083 6.27105 14.9 6.00275 14.9ZM18 14.9L17.05 13.95C17.05 13.6833 17.1421 13.4583 17.3263 13.275C17.5103 13.0916 17.7348 13 18 13C18.2691 13 18.4948 13.091 18.677 13.273C18.859 13.4551 18.95 13.6808 18.95 13.95C18.95 14.2151 18.8583 14.4397 18.675 14.6237C18.4916 14.8079 18.2666 14.9 18 14.9ZM3.02498 14.475C2.87498 14.475 2.74998 14.425 2.64998 14.325C2.54998 14.225 2.49997 14.1 2.49997 13.95C2.49997 13.8 2.54998 13.675 2.64998 13.575C2.74998 13.475 2.87498 13.425 3.02498 13.425C3.17498 13.425 3.29998 13.475 3.39998 13.575C3.49998 13.675 3.54997 13.8 3.54997 13.95C3.54997 14.1 3.49998 14.225 3.39998 14.325C3.29998 14.425 3.17498 14.475 3.02498 14.475ZM20.975 14.475C20.825 14.475 20.7 14.425 20.6 14.325C20.5 14.225 20.45 14.1 20.45 13.95C20.45 13.8 20.5 13.675 20.6 13.575C20.7 13.475 20.825 13.425 20.975 13.425C21.125 13.425 21.25 13.475 21.35 13.575C21.45 13.675 21.5 13.8 21.5 13.95C21.5 14.1 21.45 14.225 21.35 14.325C21.25 14.425 21.125 14.475 20.975 14.475ZM14.425 11.325L12.675 9.575C12.775 9.30835 12.9417 9.09585 13.175 8.9375C13.4083 8.77915 13.6667 8.7 13.95 8.7C14.34 8.7 14.6625 8.8275 14.9175 9.0825C15.1725 9.3375 15.3 9.66 15.3 10.05C15.3 10.3334 15.2208 10.5916 15.0625 10.825C14.9042 11.0583 14.6917 11.225 14.425 11.325ZM6.00275 11C5.73425 11 5.5083 10.9092 5.325 10.7277C5.14165 10.5461 5.05 10.3211 5.05 10.0527C5.05 9.78425 5.14075 9.55835 5.32225 9.375C5.5039 9.19165 5.7289 9.1 5.99725 9.1C6.26575 9.1 6.49165 9.19075 6.675 9.37225C6.8583 9.5539 6.95 9.7789 6.95 10.0472C6.95 10.3157 6.85925 10.5417 6.67775 10.725C6.49605 10.9084 6.27105 11 6.00275 11ZM18.0027 11C17.7342 11 17.5083 10.9092 17.325 10.7277C17.1417 10.5461 17.05 10.3211 17.05 10.0527C17.05 9.78425 17.1408 9.55835 17.3223 9.375C17.5039 9.19165 17.7289 9.1 17.9972 9.1C18.2657 9.1 18.4916 9.19075 18.675 9.37225C18.8583 9.5539 18.95 9.7789 18.95 10.0472C18.95 10.3157 18.8592 10.5417 18.6777 10.725C18.496 10.9084 18.271 11 18.0027 11ZM3.02498 10.575C2.87498 10.575 2.74998 10.525 2.64998 10.425C2.54998 10.325 2.49997 10.2 2.49997 10.05C2.49997 9.9 2.54998 9.775 2.64998 9.675C2.74998 9.575 2.87498 9.525 3.02498 9.525C3.17498 9.525 3.29998 9.575 3.39998 9.675C3.49998 9.775 3.54997 9.9 3.54997 10.05C3.54997 10.2 3.49998 10.325 3.39998 10.425C3.29998 10.525 3.17498 10.575 3.02498 10.575ZM20.975 10.575C20.825 10.575 20.7 10.525 20.6 10.425C20.5 10.325 20.45 10.2 20.45 10.05C20.45 9.9 20.5 9.775 20.6 9.675C20.7 9.575 20.825 9.525 20.975 9.525C21.125 9.525 21.25 9.575 21.35 9.675C21.45 9.775 21.5 9.9 21.5 10.05C21.5 10.2 21.45 10.325 21.35 10.425C21.25 10.525 21.125 10.575 20.975 10.575ZM13.9528 6.95C13.6843 6.95 13.4583 6.85925 13.275 6.67775C13.0916 6.4961 13 6.2711 13 6.00275C13 5.73425 13.0908 5.50835 13.2723 5.325C13.4539 5.14165 13.6789 5.05 13.9473 5.05C14.2158 5.05 14.4417 5.14075 14.625 5.32225C14.8083 5.5039 14.9 5.7289 14.9 5.99725C14.9 6.26575 14.8093 6.49165 14.6278 6.675C14.4461 6.85835 14.2211 6.95 13.9528 6.95ZM10.05 6.95L9.1 6C9.1 5.73335 9.1915 5.50835 9.3745 5.325C9.55765 5.14165 9.7865 5.05 10.061 5.05C10.3203 5.05 10.5417 5.141 10.725 5.323C10.9083 5.50515 11 5.73085 11 6C11 6.2715 10.9083 6.49765 10.725 6.6785C10.5417 6.8595 10.3167 6.95 10.05 6.95ZM18.0027 6.95C17.7342 6.95 17.5083 6.85925 17.325 6.67775C17.1417 6.4961 17.05 6.2711 17.05 6.00275C17.05 5.73425 17.1408 5.50835 17.3223 5.325C17.5039 5.14165 17.7289 5.05 17.9972 5.05C18.2657 5.05 18.4916 5.14075 18.675 5.32225C18.8583 5.5039 18.95 5.7289 18.95 5.99725C18.95 6.26575 18.8592 6.49165 18.6777 6.675C18.496 6.85835 18.271 6.95 18.0027 6.95ZM10.05 3.55C9.9 3.55 9.775 3.5 9.675 3.4C9.575 3.3 9.525 3.175 9.525 3.025C9.525 2.875 9.575 2.75 9.675 2.65C9.775 2.55 9.9 2.5 10.05 2.5C10.2 2.5 10.325 2.55 10.425 2.65C10.525 2.75 10.575 2.875 10.575 3.025C10.575 3.175 10.525 3.3 10.425 3.4C10.325 3.5 10.2 3.55 10.05 3.55ZM13.95 3.55C13.8 3.55 13.675 3.5 13.575 3.4C13.475 3.3 13.425 3.175 13.425 3.025C13.425 2.875 13.475 2.75 13.575 2.65C13.675 2.55 13.8 2.5 13.95 2.5C14.1 2.5 14.225 2.55 14.325 2.65C14.425 2.75 14.475 2.875 14.475 3.025C14.475 3.175 14.425 3.3 14.325 3.4C14.225 3.5 14.1 3.55 13.95 3.55Z" fill="var(--fill-0, black)"/>
</g>
</svg>
