<svg preserveAspectRatio="none" width="100%" height="100%" overflow="visible" style="display: block;" viewBox="0 0 24 24" fill="none" xmlns="http://www.w3.org/2000/svg">
<g id="Hematology--Streamline-Sharp-Material-Symbols 1">
<path id="Vector" d="M13 23C11.7833 23 10.8125 22.4917 10.0875 21.475C9.3625 20.4584 9 19.3 9 18C9 16.7 9.3625 15.5416 10.0875 14.525C10.8125 13.5083 11.7833 13 13 13C14.2167 13 15.1875 13.5083 15.9125 14.525C16.6375 15.5416 17 16.7 17 18C17 19.3 16.6375 20.4584 15.9125 21.475C15.1875 22.4917 14.2167 23 13 23ZM4.05 22.15L2.625 21.675C3.09166 20.0916 3.4375 18.4959 3.6625 16.8875C3.8875 15.2792 4 13.65 4 12C4 10.35 3.8875 8.71665 3.6625 7.1C3.4375 5.48335 3.09166 3.88333 2.625 2.3L4.05 1.825C4.53334 3.49167 4.89583 5.17085 5.1375 6.8625C5.37915 8.55415 5.5 10.2666 5.5 12C5.5 13.7167 5.37915 15.4208 5.1375 17.1125C4.89583 18.8041 4.53334 20.4833 4.05 22.15ZM19.95 22.15C19.4667 20.4833 19.1041 18.8041 18.8625 17.1125C18.6208 15.4208 18.5 13.7167 18.5 12C18.5 10.2666 18.6208 8.55415 18.8625 6.8625C19.1041 5.17085 19.4667 3.49167 19.95 1.825L21.375 2.3C20.9083 3.88333 20.5625 5.48335 20.3375 7.1C20.1125 8.71665 20 10.35 20 12C20 13.65 20.1125 15.2792 20.3375 16.8875C20.5625 18.4959 20.9083 20.0916 21.375 21.675L19.95 22.15ZM13 21.5C13.8 21.5 14.4167 21.1416 14.85 20.425C15.2834 19.7083 15.5 18.9 15.5 18C15.5 17.1 15.2834 16.2916 14.85 15.575C14.4167 14.8583 13.8 14.5 13 14.5C12.2 14.5 11.5833 14.8583 11.15 15.575C10.7166 16.2916 10.5 17.1 10.5 18C10.5 18.9 10.7166 19.7083 11.15 20.425C11.5833 21.1416 12.2 21.5 13 21.5ZM12.225 19.8C12.375 19.9333 12.55 20 12.75 20C12.95 20 13.125 19.925 13.275 19.775C13.5083 19.5416 13.6875 19.2708 13.8125 18.9625C13.9375 18.6541 14 18.3334 14 18C14 17.6666 13.9416 17.3459 13.825 17.0375C13.7083 16.7292 13.5334 16.4584 13.3 16.225C13.1667 16.075 12.9959 16 12.7875 16C12.5792 16 12.4 16.0667 12.25 16.2C12.1 16.3334 12.0208 16.5084 12.0125 16.725C12.0041 16.9417 12.0666 17.125 12.2 17.275L12.35 17.4875C12.45 17.6291 12.5 17.8 12.5 18C12.5 18.2 12.45 18.3709 12.35 18.5125L12.2 18.725C12.05 18.875 11.9792 19.0583 11.9875 19.275C11.9959 19.4916 12.075 19.6666 12.225 19.8ZM11 11C9.78335 11 8.8125 10.4917 8.0875 9.475C7.3625 8.45835 7 7.3 7 6C7 4.7 7.3625 3.54167 8.0875 2.525C8.8125 1.50834 9.78335 1 11 1C12.2167 1 13.1875 1.50834 13.9125 2.525C14.6375 3.54167 15 4.7 15 6C15 7.3 14.6375 8.45835 13.9125 9.475C13.1875 10.4917 12.2167 11 11 11ZM11 9.5C11.8 9.5 12.4167 9.14165 12.85 8.425C13.2834 7.70835 13.5 6.9 13.5 6C13.5 5.1 13.2834 4.29167 12.85 3.575C12.4167 2.85834 11.8 2.5 11 2.5C10.2 2.5 9.58335 2.85834 9.15 3.575C8.71665 4.29167 8.5 5.1 8.5 6C8.5 6.9 8.71665 7.70835 9.15 8.425C9.58335 9.14165 10.2 9.5 11 9.5ZM11.75 7.8C11.9 7.66665 11.9792 7.49165 11.9875 7.275C11.9959 7.05835 11.9334 6.875 11.8 6.725C11.7167 6.625 11.6458 6.5125 11.5875 6.3875C11.5291 6.2625 11.5 6.13335 11.5 6C11.5 5.86665 11.5291 5.7375 11.5875 5.6125C11.6458 5.4875 11.7167 5.375 11.8 5.275C11.9334 5.125 12 4.94584 12 4.7375C12 4.52917 11.925 4.35 11.775 4.2C11.625 4.06666 11.45 4 11.25 4C11.05 4 10.875 4.075 10.725 4.225C10.4917 4.45833 10.3125 4.72916 10.1875 5.0375C10.0625 5.34585 10 5.66665 10 6C10 6.33335 10.0584 6.65415 10.175 6.9625C10.2917 7.27085 10.4666 7.54165 10.7 7.775C10.85 7.925 11.025 8 11.225 8C11.425 8 11.6 7.93335 11.75 7.8Z" fill="var(--fill-0, black)"/>
</g>
</svg>
