<svg preserveAspectRatio="none" width="100%" height="100%" overflow="visible" style="display: block;" viewBox="0 0 24 24" fill="none" xmlns="http://www.w3.org/2000/svg">
<g id="Cardiology--Streamline-Sharp-Material-Symbols 1">
<path id="Vector" d="M7.25 3C8.2 3 9.07915 3.225 9.8875 3.675C10.6958 4.125 11.4 4.775 12 5.625C12.7 4.725 13.4417 4.0625 14.225 3.6375C15.0084 3.2125 15.85 3 16.75 3C18.2334 3 19.4791 3.50416 20.4875 4.5125C21.4958 5.52085 22 6.775 22 8.275C22 8.525 21.9875 8.77085 21.9625 9.0125C21.9375 9.25415 21.8917 9.5 21.825 9.75H20.275C20.3583 9.5 20.4167 9.25415 20.45 9.0125C20.4834 8.77085 20.5 8.525 20.5 8.275C20.5 7.175 20.15 6.27085 19.45 5.5625C18.75 4.85417 17.85 4.5 16.75 4.5C15.9 4.5 15.1083 4.7625 14.375 5.2875C13.6417 5.8125 13.05 6.55 12.6 7.5H11.375C10.9417 6.56665 10.3583 5.83335 9.625 5.3C8.89165 4.76667 8.1 4.5 7.25 4.5C6.15 4.5 5.25 4.85417 4.55 5.5625C3.85 6.27085 3.5 7.175 3.5 8.275C3.5 8.525 3.51666 8.77085 3.55 9.0125C3.58333 9.25415 3.64166 9.5 3.725 9.75H2.175C2.10833 9.5 2.0625 9.25415 2.0375 9.0125C2.0125 8.77085 2 8.525 2 8.275C2 6.775 2.50417 5.52085 3.5125 4.5125C4.52084 3.50416 5.76665 3 7.25 3ZM4.8 14.25H6.75C7.38335 14.95 8.12915 15.7125 8.9875 16.5375C9.84585 17.3625 10.85 18.3 12 19.35C13.15 18.3 14.15 17.3625 15 16.5375C15.85 15.7125 16.5917 14.95 17.225 14.25H19.2C18.5 15.0666 17.65 15.9708 16.65 16.9625C15.65 17.9541 14.4416 19.1 13.025 20.4L12 21.325L10.975 20.4C9.55835 19.1 8.35 17.9541 7.35 16.9625C6.35 15.9708 5.5 15.0666 4.8 14.25ZM11.05 15.75C11.2 15.75 11.3333 15.7042 11.45 15.6125C11.5666 15.5209 11.65 15.4 11.7 15.25L13.225 10.725L14.375 12.425C14.4584 12.525 14.55 12.6042 14.65 12.6625C14.75 12.7209 14.8667 12.75 15 12.75H22.75V11.25H15.425L13.625 8.6C13.5416 8.48335 13.4416 8.4 13.325 8.35C13.2083 8.3 13.0833 8.275 12.95 8.275C12.8 8.275 12.6625 8.32085 12.5375 8.4125C12.4125 8.50415 12.325 8.625 12.275 8.775L10.775 13.3L9.6 11.575C9.51665 11.475 9.42915 11.3958 9.3375 11.3375C9.24585 11.2791 9.13335 11.25 9 11.25H1.25V12.75H8.55L10.35 15.425C10.4334 15.5417 10.5375 15.625 10.6625 15.675C10.7875 15.725 10.9167 15.75 11.05 15.75Z" fill="var(--fill-0, black)"/>
</g>
</svg>
